<?xml version="1.0" encoding="UTF-8" standalone="no"?>
<svg width="18px" height="100px" viewBox="0 0 18 100" version="1.1" xmlns="http://www.w3.org/2000/svg" xmlns:xlink="http://www.w3.org/1999/xlink" xmlns:sketch="http://www.bohemiancoding.com/sketch/ns">
    <title>f-1</title>
    <description>Created with Sketch (http://www.bohemiancoding.com/sketch)</description>
    <defs></defs>
    <g id="Page-1" stroke="none" stroke-width="1" fill="none" fill-rule="evenodd" sketch:type="MSPage">
        <g id="f-1" sketch:type="MSArtboardGroup" fill="#58595B">
            <path d="M15,93 C14.5054013,92.0866873 14.6279819,89.3156556 15,89 C14.6279819,89.3156556 17.5760454,89.1709461 18,89 C18.1184646,86.778622 17.2512068,84.8388998 16,83 C16.4758845,82.9299667 16.6536264,82.880704 17,83 C17.5637874,82.3819182 17.8579808,81.4828724 18,81 C17.5484648,80.725457 15.2194333,74.4259781 13,73 C12.0292731,71.9412863 11.4470153,72.6463599 11,71 C12.5441117,70.4202977 12.8873374,68.8531253 13,68 C13.111047,67.9971844 13.1539502,68.0957099 13,68 C13.8066919,68.2773665 14.2173369,67.7816597 14,67 C14.4931433,66.0143572 14.1713692,65.2754154 14,65 C13.5584662,65.2754154 13.3745953,65.4447562 13,65 C12.908789,63.7205586 13.009918,63.2248518 13,63 C12.2989505,62.4828311 11.695241,62.1133602 11,62 C10.6195962,61.633048 10.2212093,61.3805762 10,61 C10.1262093,60.8817905 10.2395963,60.6262398 10,60 C10.2395963,60.0166128 10.0894351,59.7271939 10,60 C10.4847576,58.4432825 12.2591118,58.6988333 11,58 C11.3183057,57.6335255 8.7870162,56.9315308 9,57 C7.01572649,57.3810537 6.07798488,58.9174369 7,59 C7.4049199,59.1914611 7.70217787,59.2992235 8,60 C7.65621014,59.7117993 7.49379084,60.0042971 7,60 C7.49379084,60.6662658 7.63475854,60.9526058 8,61 C7.55814566,61.4421547 7.11992,61.716179 7,62 C6.13621066,62.2334382 5.63363019,62.5505674 5,63 C4.99008203,63.2248518 5.09734006,63.7205586 5,65 C4.62540473,65.4447562 4.44459834,65.2754154 4,65 C3.83475985,65.2754154 3.50992125,66.0143572 4,67 C3.78266309,67.7816597 4.16266296,68.4774965 5,68 C4.8215337,68.2989189 4.86443691,68.1973144 5,68 C5.08508199,69.0532554 5.44056574,70.5188233 7,71 C6.54072665,72.6402021 5.95540428,71.950523 5,73 C2.77750215,74.4259781 0.44847069,80.725457 7.10542736e-15,81 C0.138954668,81.4828724 0.433148115,82.3819182 1,83 C1.34637361,82.8837829 1.52718,82.9299667 2,83 C0.748793167,84.8388998 -0.118464598,86.778622 7.10542736e-15,89 C0.423954569,89.1709461 3.37201807,89.3156556 3,89 C3.37201807,89.3156556 3.49459867,92.0866873 3,93 C1.72943799,93.9217262 1.37088973,94.1772769 1,94 C1.2023414,94.5344321 1.22992203,95.1255855 1,95 C1.426051,95.473504 1.72024445,95.9753686 3,96 L7,96 C8.22927446,96 7.57959726,94.5036428 7,93 L9,89 L11,93 C10.4204027,94.5036428 9.77072554,96 11,96 L15,96 C16.2797556,95.9753686 16.573949,95.473504 17,95 C16.770078,95.1255855 16.7976586,94.5344321 17,94 C16.6291103,94.1772769 16.270562,93.9217262 15,93" id="Fill-8" sketch:type="MSShapeGroup"></path>
        </g>
    </g>
</svg>