<?xml version="1.0" encoding="UTF-8" standalone="no"?>
<svg width="23px" height="100px" viewBox="0 0 23 100" version="1.1" xmlns="http://www.w3.org/2000/svg" xmlns:xlink="http://www.w3.org/1999/xlink" xmlns:sketch="http://www.bohemiancoding.com/sketch/ns">
    <title>f-2</title>
    <description>Created with Sketch (http://www.bohemiancoding.com/sketch)</description>
    <defs></defs>
    <g id="Page-1" stroke="none" stroke-width="1" fill="none" fill-rule="evenodd" sketch:type="MSPage">
        <g id="f-2" sketch:type="MSArtboardGroup" fill="#58595B">
            <path d="M18,46 C18.2292316,45.918093 18.3304982,45.9056657 18,46 C18.79387,45.7969271 19.088464,45.576343 19,45 C19.7635751,46.567418 19.4873933,48.8353951 21,50 C21.7367409,49.5623906 23.3478016,47.8878156 23,46 C22.1602197,43.8427385 20.3098014,43.1095295 19,43 C18.9442357,42.1526295 18.2599184,41.7114613 18,42 C17.0938174,41.9662204 16.7808113,42.2893295 17,43 C16.4033628,42.6403999 15.6484657,42.3390386 15,42 C14.086504,41.4038863 12.9265403,41 11,41 C10.0726613,41 8.91269761,41.4038863 8,42 C7.35380458,42.3390386 6.59583887,42.6403999 6,43 C6.21839036,42.2893295 5.90538428,41.9662204 5,42 C4.73928319,41.7114613 4.05496597,42.1526295 4,43 C2.68940022,43.1095295 0.838981913,43.8427385 1.77635684e-15,46 C-0.345531298,47.8878156 1.26246073,49.5623906 2,50 C3.51487704,48.8353951 3.23562652,46.567418 4,45 C3.91073768,45.576343 4.20533164,45.7969271 5,46 C4.66870338,45.9056657 4.76997006,45.918093 5,46 C5.27937211,45.918093 5.60772163,45.6757612 6,45 C5.98517014,45.8311021 6.04961257,46.412077 6,47 C5.79491154,47.2757725 5.78877417,47.8722815 6,49 C6.04040651,49.2889906 6.58356412,50.1930746 7,50 C7.23105709,50.1930746 7.24946922,50.1806473 7,50 C7.54713186,50.9946337 7.89082481,51.7589109 8,52 C8.31123494,52.4082359 8.77767538,53.0513472 9,54 C7.32311771,53.9896063 6.23066511,54.4276676 6,55 C5.21799837,54.9061176 3.02081842,64.2669604 3,64 L5,71 C3.42895381,74.1559623 1.04151526,78.4744394 3,83 C3.30006895,83.6566119 4.4047963,84.0325369 6,84 L7,93 C6.01585701,93.8935774 3.74195989,94.2695023 4,94 C3.58238816,94.6081455 3.60693766,95.1704796 4,95 C3.79105888,95.4998023 4.06724072,95.9751455 5,96 L10,96 C11.0392978,96 10.4224917,94.583291 10,93 L12,84 L13,93 C12.5797787,94.583291 11.9599039,96 13,96 L18,96 C18.9319609,95.9751455 19.2081428,95.4998023 19,95 C19.392264,95.1704796 19.4168135,94.6081455 19,94 C19.2572417,94.2695023 16.9833446,93.8935774 16,93 L17,84 C18.597474,84.0325369 19.6991327,83.6566119 20,83 C21.9576864,78.4744394 19.5702478,74.1559623 18,71 L20,64 C19.9783832,64.2669604 17.7812033,54.9061176 17,55 C16.7685365,54.4276676 15.6760839,53.9896063 14,54 C14.2215263,53.0513472 14.6879667,52.4082359 15,52 C15.1083768,51.7589109 15.4520698,50.9946337 16,50 C15.7497324,50.1806473 15.7681445,50.1930746 16,50 C16.4187062,50.1930746 16.9587951,49.2889906 17,49 C17.2104275,47.8722815 17.2073588,47.2757725 17,47 C16.9495891,46.412077 17.0140315,45.8311021 17,45 C17.39148,45.6757612 17.7198295,45.918093 18,46" id="Fill-4" sketch:type="MSShapeGroup"></path>
        </g>
    </g>
</svg>