<?xml version="1.0" encoding="UTF-8" standalone="no"?>
<svg width="19px" height="100px" viewBox="0 0 19 100" version="1.1" xmlns="http://www.w3.org/2000/svg" xmlns:xlink="http://www.w3.org/1999/xlink" xmlns:sketch="http://www.bohemiancoding.com/sketch/ns">
    <title>f-3</title>
    <description>Created with Sketch (http://www.bohemiancoding.com/sketch)</description>
    <defs></defs>
    <g id="Page-1" stroke="none" stroke-width="1" fill="none" fill-rule="evenodd" sketch:type="MSPage">
        <g id="f-3" sketch:type="MSArtboardGroup" fill="#58595B">
            <path d="M15,93 L15,79 C17.1031667,78.6724523 19,78.0842867 19,78 C19,78.0842867 16.5838333,69.5667762 17,64 C16.5838333,64.0025422 16.5553333,63.6166557 17,63 L19,55 C18.9461667,54.9030901 18.1481667,45.7787421 16,44 C15.0353333,42.492483 14.5381667,42.4209073 12,42 C12.0175,41.6553583 12.0491667,40.8866973 12,40 C19.3863333,40.2487399 16.4381667,33.1845277 16,30 C14.9973333,27.8163489 13.4171667,25 10,25 C5.586,25 4.00583333,27.8163489 3,30 C2.565,33.1845277 -0.383166667,40.2487399 7,40 C6.954,40.8866973 6.98566667,41.6553583 7,42 C4.465,42.4209073 3.96783333,42.492483 3,44 C0.855,45.7787421 0.057,54.9030901 0,55 L2,63 C2.44783333,63.6166557 2.41933333,64.0025422 2,64 C2.41933333,69.5667762 0,78.0842867 0,78 C0,78.0842867 1.9,78.6724523 4,79 L4,93 C3.10966667,93.6006575 0.4465,94.0269998 0,94 C0.2565,94.4191102 0.281833333,95.0477318 1,95 C0.506666667,95.4305062 0.823333333,95.9751041 2,96 L8,96 C9.0155,96 8.29666667,94.3786544 8,93 L9,79 C9.0155,78.8778435 9.25933333,78.8778435 10,79 C9.74383333,78.8778435 9.98766667,78.8778435 10,79 L11,93 C10.7065,94.3786544 9.98766667,96 11,96 L17,96 C18.1798333,95.9751041 18.4965,95.4305062 18,95 C18.7213333,95.0477318 18.7466667,94.4191102 19,94 C18.5566667,94.0269998 15.8935,93.6006575 15,93" id="Fill-5" sketch:type="MSShapeGroup"></path>
        </g>
    </g>
</svg>