<?xml version="1.0" encoding="UTF-8" standalone="no"?>
<svg width="25px" height="100px" viewBox="0 0 25 100" version="1.1" xmlns="http://www.w3.org/2000/svg" xmlns:xlink="http://www.w3.org/1999/xlink" xmlns:sketch="http://www.bohemiancoding.com/sketch/ns">
    <title>f-4</title>
    <description>Created with Sketch (http://www.bohemiancoding.com/sketch)</description>
    <defs></defs>
    <g id="Page-1" stroke="none" stroke-width="1" fill="none" fill-rule="evenodd" sketch:type="MSPage">
        <g id="f-4" sketch:type="MSArtboardGroup" fill="#58595B">
            <path d="M25,70 C25,69.5407265 21.8746143,63.7120892 21,58 L24,48 L22,36 C22.2355918,35.7053623 22.0443046,34.8397847 21,34 C20.4152783,33.6099174 19.6686412,33.1148568 19,33 C18.1105763,32.4516625 17.3670246,32.2461657 17,32 C15.935456,32.0749183 15.5374553,31.8943302 15,31 C15.2752067,31.1252739 14.9882759,29.5373438 15,30 C19.0824386,29.2384394 21.3963964,27.2270613 21,27 C21.3963964,27.2270613 17.5428854,27.2924467 18,22 C18.4252746,21.6817605 18.3573985,20.8379781 18,20 C18.4036777,17.6963675 16.5124028,15 12,15 C8.48451191,15 6.54387264,17.6496637 7,20 C6.59323707,20.7881607 6.87708256,28.4662695 10,29 C10.0394915,29.5311167 9.98704184,31.0349798 10,32 C9.39158336,32.0873727 8.77452795,32.0437824 8,32 C7.58052573,32.2399385 6.87091201,32.4205266 6,33 C5.2172035,32.9840861 4.22682957,33.4417836 3,34 C2.95569542,34.6467423 2.44353943,35.7178166 2,36 L1,48 L4,58 C3.12230038,63.7120892 0,69.5407265 0,70 C0,69.5407265 3.48944835,70.0793773 6,71 L8,93 C6.88942367,93.1510667 3.42157226,94.0851432 3,94 C3.19943231,94.5490678 3.35678144,94.8697674 4,95 C3.61285943,95.3243513 3.98309268,95.9688641 5,96 L11,96 C12.6033568,96 11.7734173,94.0758024 12,93 L12,71 C12.6187832,71.2002691 11.9893866,71.2002691 12,71 C12.6033568,71.2002691 12.2948291,71.2002691 12,71 L13,93 C13.2265827,94.0758024 12.3935579,96 14,96 L20,96 C21.0169073,95.9688641 21.3840553,95.3243513 21,95 C21.6401333,94.8697674 21.5907689,94.608226 21,94 C21.3686289,94.1443014 18.1105763,93.1510667 17,93 L19,71 C21.3161792,70.1758985 25,69.5407265 25,70 L25,70 Z M5,53 L4,47 C3.93903319,47.1356872 5.36103319,42 5,42 C5.87103319,44.0606945 6.64203319,45.6559673 7,46 C6.64203319,47.9509775 5.73303319,51.0644879 5,53 L5,53 Z M19,42 C19.278,42 20.703,47.1356872 21,47 L20,53 C18.906,51.0644879 18,47.9509775 18,46 C18,45.6559673 18.768,44.0606945 19,42 L19,42 Z" id="Fill-15" sketch:type="MSShapeGroup"></path>
        </g>
    </g>
</svg>