<?xml version="1.0" encoding="UTF-8" standalone="no"?>
<svg width="28px" height="100px" viewBox="0 0 28 100" version="1.1" xmlns="http://www.w3.org/2000/svg" xmlns:xlink="http://www.w3.org/1999/xlink" xmlns:sketch="http://www.bohemiancoding.com/sketch/ns">
    <title>f-5</title>
    <description>Created with Sketch (http://www.bohemiancoding.com/sketch)</description>
    <defs></defs>
    <g id="Page-1" stroke="none" stroke-width="1" fill="none" fill-rule="evenodd" sketch:type="MSPage">
        <g id="f-5" sketch:type="MSArtboardGroup" fill="#58595B">
            <path d="M25,73 C25.4142398,72.8403892 24.4128004,65.5149953 24,59 L28,47 L25,32 C25.1662053,31.2798635 24.7166427,30.5960351 24,30 C22.8997896,29.6499165 20.8193998,28.8817806 18,29 C17.0616764,28.0699296 17.1670911,27.4235713 17,27 C22.0099657,25.9497495 23.6872993,23.6234841 23,23 C22.3541136,22.3495026 20.059794,22.4587902 21,17 C21.0550327,16.4885629 21.0550327,16.0982499 21,16 C21.10774,12.7571709 18.5002768,10 14,10 C9.50592404,10 6.89536043,12.7571709 7,16 C6.94496733,16.0982499 6.94496733,16.4885629 7,17 C7.94330639,22.4587902 5.64588639,22.3495026 5,23 C4.31890156,23.6234841 5.99313476,25.9497495 11,27 C10.8329089,27.4235713 10.9383236,28.0699296 10,29 C7.18060016,28.8817806 5.10331082,29.6499165 4,30 C3.28645776,30.5960351 2.83379471,31.2798635 3,32 L0,47 L4,59 C3.58719965,65.5149953 2.58576016,72.8403892 3,73 C2.58576016,72.8403892 3.32676337,73.471135 6,74 L7,92 C5.78540582,92.9961513 3.30195992,93.5300995 3,94 C3.06012623,94.0203326 3.10043185,94.810326 3,95 C3.38877201,95.2880691 3.79492858,95.968775 5,96 L12,96 C13.3721626,96 12.4482339,93.9703725 12,92 L13,75 C13.4589746,74.5827464 13.6574023,74.5889914 14,75 L14,75 C13.8558299,74.5889914 13.8806334,74.5858689 14,75 C13.9395416,74.5858689 13.9612446,74.5889914 14,75 C13.9891485,74.5889914 13.9922489,74.5889914 14,75 L14,75 C14.0015502,74.5889914 14.0046506,74.5889914 14,75 C14.0077511,74.5889914 14.0108515,74.5889914 14,75 C14.0387554,74.5889914 14.0604584,74.5858689 14,75 C14.1224671,74.5858689 14.1503709,74.5889914 14,75 L14,75 C14.3456982,74.5889914 14.5410254,74.5827464 15,75 L16,92 C15.5548666,93.9703725 14.6309379,96 16,96 L23,96 C24.2081719,95.968775 24.6143284,95.2880691 25,95 C24.8995682,94.810326 24.9398738,94.0203326 25,94 C24.6980401,93.5300995 22.2145942,92.9961513 21,92 L22,74 C24.6732366,73.471135 25.4142398,72.8403892 25,73 L25,73 Z M6,40 C6.74275924,42.0219342 7.19875924,43.780658 7,45 C7.19875924,46.0299103 6.31675924,47.10668 6,49 L5,46 C4.93375924,46.1704885 6.18175924,40 6,40 L6,40 Z M22,40 C22.017,40 23.265,46.1704885 23,46 L23,49 C21.882,47.10668 21,46.0299103 21,45 C21,43.780658 21.453,42.0219342 22,40 L22,40 Z" id="Fill-7" sketch:type="MSShapeGroup"></path>
        </g>
    </g>
</svg>