<?xml version="1.0" encoding="UTF-8" standalone="no"?>
<svg width="35px" height="100px" viewBox="0 0 35 100" version="1.1" xmlns="http://www.w3.org/2000/svg" xmlns:xlink="http://www.w3.org/1999/xlink" xmlns:sketch="http://www.bohemiancoding.com/sketch/ns">
    <title>f-6</title>
    <description>Created with Sketch (http://www.bohemiancoding.com/sketch)</description>
    <defs></defs>
    <g id="Page-1" stroke="none" stroke-width="1" fill="none" fill-rule="evenodd" sketch:type="MSPage">
        <g id="f-6" sketch:type="MSArtboardGroup" fill="#58595B">
            <path d="M28,39 C27.9567577,38.9327522 26.78818,37.1239103 26,37 C25.214619,36.364259 23.764717,35.750934 22,35 C22.4755718,34.7484433 23.2577151,33.6307597 24,32 C26.2007997,29.8480697 27.2488098,26.5199253 26,24 C25.7834505,21.756538 24.2995423,20.2590286 22,19 C21.7088859,17.4632628 19.7921712,16 18,16 C15.2106046,16 13.2938899,17.4632628 13,19 C10.7032335,20.2590286 9.21932531,21.756538 9,24 C7.75396597,26.5199253 8.79888465,29.8480697 11,32 C11.7450607,33.6307597 12.5241125,34.7484433 13,35 C11.2380587,35.750934 9.78815678,36.364259 9,37 C8.2145958,37.1239103 7.0460181,38.9327522 7,39 C6.94709089,39.0946451 -0.515730713,50.8941469 0,53 C0.575560101,55.3524284 3.51864468,65.3244085 4,65 C3.87725582,66.0404732 4.56665484,66.4389788 5,67 C5.56829286,68.011208 5.95472729,69.4993773 6,71 C7.6364899,76.9277709 6.46482073,80.6450809 6,83 C6.05056303,82.8430884 6.77396827,82.9987547 9,83 L10,93 C8.79888465,93.2976339 6.75541942,93.7739726 7,94 C6.55138204,94.2160648 6.58229679,94.9259029 7,95 C6.82652335,95.358655 7.17586007,95.9719801 8,96 L16,96 C16.9696541,96 16.1782364,94.1724782 16,93 C15.9556502,92.7310087 16.5955856,86.6288917 17,83 C17.1860574,83.135741 17.3313567,83.135741 18,83 C17.671419,83.135741 17.8136269,83.135741 18,83 C18.4071902,86.6288917 19.0471256,92.7310087 19,93 C18.8245394,94.1724782 18.0331217,96 19,96 L27,96 C27.8269157,95.9719801 28.1762524,95.358655 28,95 C28.420479,94.9259029 28.4513937,94.2160648 28,94 C28.2442649,93.7739726 26.2038911,93.2976339 25,93 L26,83 C28.2288075,82.9987547 28.9522128,82.8430884 29,83 C28.5379551,80.6450809 27.3662859,76.9277709 29,71 C29.044957,69.4993773 29.4313914,68.011208 30,67 C30.4330295,66.4389788 31.1224285,66.0404732 31,65 C31.4810396,65.3244085 34.4272157,55.3524284 35,53 C35.5185065,50.8941469 28.0556849,39.0946451 28,39 L28,39 Z M6,56 L6,53 C6.15,53.31253 6.273,53.1713874 6,53 L7,53 L8,50 C8.103,52.8084494 7.275,54.1046567 6,56 L6,56 Z M29,53 L29,53 C28.935,53.1713874 29.058,53.31253 29,53 L29,56 C27.933,54.1046567 27.105,52.8084494 27,50 L29,53 L29,53 Z" id="Fill-6" sketch:type="MSShapeGroup"></path>
        </g>
    </g>
</svg>