<?xml version="1.0" encoding="UTF-8" standalone="no"?>
<svg width="46px" height="100px" viewBox="0 0 46 100" version="1.1" xmlns="http://www.w3.org/2000/svg" xmlns:xlink="http://www.w3.org/1999/xlink" xmlns:sketch="http://www.bohemiancoding.com/sketch/ns">
    <title>b</title>
    <description>Created with Sketch (http://www.bohemiancoding.com/sketch)</description>
    <defs></defs>
    <g id="Page-1" stroke="none" stroke-width="1" fill="none" fill-rule="evenodd" sketch:type="MSPage">
        <g id="b" sketch:type="MSArtboardGroup" fill="#58595B">
            <g id="Fill-2-+-Fill-3-+-Fill-1" sketch:type="MSLayerGroup" transform="translate(0.000000, 50.000000)">
                <path d="M19.2262707,39.4946357 C18.4327163,39.4946357 17.7885368,40.1450392 17.7885368,40.9323697 C17.7885368,41.7259241 18.4327163,42.3669916 19.2262707,42.3669916 C20.0167132,42.3669916 20.6608927,41.7259241 20.6608927,40.9323697 C20.6608927,40.1450392 20.0167132,39.4946357 19.2262707,39.4946357" id="Fill-2" sketch:type="MSShapeGroup"></path>
                <path d="M36.292359,42.3669916 C37.0828014,42.3669916 37.7269809,41.7259241 37.7269809,40.9323697 C37.7269809,40.1450392 37.0828014,39.4946357 36.292359,39.4946357 C35.5019165,39.4946357 34.857737,40.1450392 34.857737,40.9323697 C34.857737,41.7259241 35.5019165,42.3669916 36.292359,42.3669916" id="Fill-3" sketch:type="MSShapeGroup"></path>
                <path d="M33.0776855,32.3650938 C40.2476832,31.9729845 45.9426033,26.060226 45.9426033,18.793757 L45.9426033,18.0344343 C45.9426033,16.7803071 45.6065096,16.4130937 45.3419915,15.9867527 C43.9727211,13.7710243 43.6086196,12.2056992 43.7268748,9.40180692 C43.7579946,8.59580457 43.2414062,7.54084398 42.3918362,7.16429462 C40.141876,6.19335743 37.7549887,4.04920448 36.2145595,2.17579363 C35.6481795,1.4818225 34.9666563,1.12705699 34.0797425,1.22664029 C33.5973859,1.28576787 32.9874382,1.26398403 32.4895217,1.26398403 C30.1306422,1.26398403 28.4812938,0.790963345 26.5518673,-0.245325383 C26.3371408,-0.354244619 26.1006305,-0.432044073 25.8361124,-0.432044073 C24.9491986,-0.432044073 23.7977667,0.401966075 24.2334436,1.18929655 C25.3568677,3.19341049 29.3993273,12.2710508 28.1296403,18.0344343 L12.2554397,18.0344343 L11.8010908,16.5935885 C11.1382395,14.4805553 8.88827928,12.6973918 6.67877479,12.5355689 L2.11039085,12.2056992 L2.09794293,12.2056992 C2.06682315,12.2056992 2.03881535,12.1839154 2.01080754,12.1839154 C0.887383428,12.1839154 -0.027538152,13.098837 -0.027538152,14.2222611 C-0.027538152,15.3425732 0.887383428,16.2543828 2.01080754,16.2543828 C2.68299483,16.2543828 3.25871079,15.9027293 3.62592421,15.3985888 L6.45160038,15.6039794 C7.42253757,15.6755549 8.57708147,16.5873645 8.86649543,17.5209579 L9.69428163,21.2273239 C10.8083698,27.3797048 16.0427171,32.0787918 22.4471681,32.3744297 C23.4087694,33.7685959 24.5259695,35.041395 25.6991853,36.1523712 C25.1825969,36.5413685 24.6815685,36.8836861 24.2085478,37.1948839 C23.0633398,35.6793505 21.2646164,34.6804055 19.2262707,34.6804055 C15.775087,34.6804055 12.9711946,37.4874098 12.9711946,40.9323697 C12.9711946,44.3773295 15.775087,47.1874458 19.2262707,47.1874458 C22.6712306,47.1874458 25.4782349,44.3773295 25.4782349,40.9323697 C25.4782349,40.4842448 25.4253312,40.0516798 25.3381958,39.6315628 C26.0819586,39.17099 26.9066328,38.607722 27.7593149,37.9417586 C28.6119969,38.607722 29.4366711,39.174102 30.1804339,39.6315628 C30.0901865,40.0547918 30.0372829,40.4842448 30.0372829,40.9323697 C30.0372829,44.3773295 32.8473991,47.1874458 36.292359,47.1874458 C39.7404308,47.1874458 42.5474351,44.3773295 42.5474351,40.9323697 C42.5474351,37.4874098 39.7404308,34.6804055 36.292359,34.6804055 C34.2509013,34.6804055 32.4521779,35.6793505 31.3100819,37.1979959 C30.8339493,36.886798 30.3360328,36.5444804 29.8132204,36.1523712 C30.9926602,35.041395 32.1129723,33.762372 33.0776855,32.3650938 L33.0776855,32.3650938 Z M19.2262707,44.1065874 C17.4711151,44.1065874 16.0458291,42.6813014 16.0458291,40.9323697 C16.0458291,39.1803259 17.4711151,37.75504 19.2262707,37.75504 C20.9752025,37.75504 22.4036004,39.1803259 22.4036004,40.9323697 C22.4036004,42.6813014 20.9752025,44.1065874 19.2262707,44.1065874 L19.2262707,44.1065874 Z M36.292359,37.75504 C38.0444027,37.75504 39.4728007,39.1803259 39.4728007,40.9323697 C39.4728007,42.6813014 38.0444027,44.1065874 36.292359,44.1065874 C34.5434272,44.1065874 33.1181412,42.6813014 33.1181412,40.9323697 C33.1181412,39.1803259 34.5434272,37.75504 36.292359,37.75504 L36.292359,37.75504 Z M25.8174405,32.4055495 L29.6980772,32.4055495 C29.0787936,33.1244164 28.4346141,33.8246115 27.7593149,34.4501191 C27.0777916,33.8246115 26.4336122,33.1275284 25.8174405,32.4055495 L25.8174405,32.4055495 Z" id="Fill-1" sketch:type="MSShapeGroup"></path>
            </g>
        </g>
    </g>
</svg>