<?xml version="1.0" encoding="UTF-8" standalone="no"?>
<svg width="18px" height="100px" viewBox="0 0 18 100" version="1.1" xmlns="http://www.w3.org/2000/svg" xmlns:xlink="http://www.w3.org/1999/xlink" xmlns:sketch="http://www.bohemiancoding.com/sketch/ns">
    <title>m-1</title>
    <description>Created with Sketch (http://www.bohemiancoding.com/sketch)</description>
    <defs></defs>
    <g id="Page-1" stroke="none" stroke-width="1" fill="none" fill-rule="evenodd" sketch:type="MSPage">
        <g id="m-1" sketch:type="MSArtboardGroup" fill="#58595B">
            <path d="M18,80 C17.8750185,79.7314696 15.4576449,73.4344704 14,72 C12.2291789,71.0153886 11.6184739,71.5632213 11,71 C12.8907758,69.898179 13.4760347,68.7348038 14,68 C13.7463989,67.8699667 13.8004717,67.9715312 14,68 C14.5861181,68.1500385 15.2445343,66.7927674 15,66 C15.5657906,65.0261606 15.1809192,64.2875096 14,64 C14.4525264,64.2875096 14.2298736,64.4567838 14,64 C13.7782064,63.1487561 13.5396498,62.7455758 13,62 C13.3042739,62.44396 13.3106355,62.4378046 13,62 C12.7221958,61.4806361 13.9022558,60.529623 13,59 C12.5886041,59.5109002 11.9301879,59.7017184 11,60 C8.27868148,59.7017184 6.37659016,60.4126699 5,61 C4.81802034,61.9145935 4.32182261,62.7363427 4,64 C3.76200977,64.4567838 3.54571845,64.2875096 4,64 C2.81096411,64.2875096 2.42609279,65.0261606 3,66 C2.75689128,66.7927674 3.408946,68.1500385 4,68 C4.19777317,67.9715312 4.24866525,67.8699667 4,68 C4.51584864,68.7348038 5.10110751,69.898179 7,71 C6.37659016,71.5632213 5.76588525,71.0153886 4,72 C2.54059996,73.4344704 0.126407124,79.7314696 -5.32907052e-15,80 C-0.194849103,80.4885868 0.110503351,81.3872788 1,82 C1.28102109,82.0089767 1.72950751,82.0459092 2,82 C1.72950751,85.6068223 1.70406147,89.4508848 3,92 C1.4559626,92.9225442 1.0838143,93.1779944 1,93 C0.912053541,93.535009 0.934318824,94.1259297 1,94 C1.14106788,94.4737112 1.44642033,94.9753783 2,95 L7,95 C8.20552412,95 7.52802337,93.5042319 7,92 L9,88 L11,92 C10.4734022,93.5042319 9.79590149,95 11,95 L16,95 C16.5550053,94.9753783 16.857177,94.4737112 17,94 C17.063926,94.1259297 17.0893721,93.535009 17,93 C16.9144306,93.1779944 16.5422823,92.9225442 15,92 C16.2973641,89.4508848 16.2687373,85.6068223 16,82 C16.2687373,82.0459092 16.7172238,82.0089767 17,82 C17.8909223,81.3872788 18.193094,80.4885868 18,80" id="Fill-9" sketch:type="MSShapeGroup"></path>
        </g>
    </g>
</svg>