<?xml version="1.0" encoding="UTF-8" standalone="no"?>
<svg width="20px" height="100px" viewBox="0 0 20 100" version="1.1" xmlns="http://www.w3.org/2000/svg" xmlns:xlink="http://www.w3.org/1999/xlink" xmlns:sketch="http://www.bohemiancoding.com/sketch/ns">
    <title>m-2</title>
    <description>Created with Sketch (http://www.bohemiancoding.com/sketch)</description>
    <defs></defs>
    <g id="Page-1" stroke="none" stroke-width="1" fill="none" fill-rule="evenodd" sketch:type="MSPage">
        <g id="m-2" sketch:type="MSArtboardGroup" fill="#58595B">
            <path d="M20,93 C19.8907101,93.2523189 17.5232952,92.8729291 17,92 L16,87 C17.1642107,87.3562275 17.828358,87.2131789 18,87 C17.7965806,83.5343413 17.5582503,79.2024556 17,76 C17.4057189,75.5951424 17.4152521,75.5982521 17,76 C18.2732414,75.5858131 18.9564551,74.9483138 19,74 L20,63 L17,54 C17.1546775,53.8330921 16.6907278,53.5283363 16,53 C15.6738515,53.0960806 14.4091117,52.5736422 13,52 C12.7249105,51.5536432 13.2397041,50.8601684 13,51 C13.6814097,50.2040105 14.0341386,49.4359016 14,49 C14.345557,48.6087073 14.3646234,48.6242561 14,49 C15.0446594,48.6242561 15.6102968,47.7130985 16,47 C15.9058264,46.0991368 15.8772268,45.3279181 15,45 C15.1813021,45.3279181 15.1272806,45.3341376 15,45 C15.7278731,43.7201759 15.2893452,42.0035923 14,41 C13.1411942,39.5935339 12.1370289,37.4478044 10,37 C10.4464722,37.5753043 9.32473063,38.4180473 8,39 C6.5759871,39.6246314 5.73706422,40.4829232 5,41 C4.40241418,42.53536 4.18632798,43.9751756 5,45 C4.68205514,45.3341376 4.62485585,45.3279181 5,45 C3.92893119,45.3279181 3.90668702,46.0991368 4,47 C4.19903894,47.7130985 4.76785407,48.6242561 5,49 C5.44471231,48.6242561 5.46695647,48.6087073 5,49 C5.77201934,49.4359016 6.13428149,50.2040105 7,51 C6.57280936,50.8601684 7.208357,51.5505335 7,52 C5.60677695,52.5674227 4.3293262,53.0960806 4,53 C3.30927224,53.5283363 2.8485002,53.8330921 3,54 L-7.10542736e-15,63 L1,74 C1.04354491,74.9483138 1.72675862,75.5858131 3,76 C2.58792567,75.5982521 2.59745889,75.5951424 3,76 C2.44174972,79.2024556 2.20659709,83.5343413 2,87 C2.17481971,87.2131789 2.83896699,87.3562275 4,87 L3,92 C2.47670484,92.8729291 0.109289885,93.2523189 -7.10542736e-15,93 C-0.0559525006,93.6006112 -0.0305305951,94.157257 -7.10542736e-15,94 C0.163311434,94.49622 0.455663348,94.975122 1,95 L7,95 C7.72950606,95 7.09078069,93.5695137 7,92 L8,87 C8.37458692,87.3904348 8.72731586,87.3406788 9,87 C9.05144515,84.796901 9.77596946,81.4943435 10,81 C10.2240305,81.4943435 10.9485548,84.796901 11,87 C11.2726841,87.3406788 11.6254131,87.3904348 12,87 L13,92 C12.9123971,93.5695137 12.2704939,95 13,95 L19,95 C19.5475144,94.975122 19.8366886,94.49622 20,94 C20.0305306,94.157257 20.0559525,93.6006112 20,93" id="Fill-10" sketch:type="MSShapeGroup"></path>
        </g>
    </g>
</svg>