<?xml version="1.0" encoding="UTF-8" standalone="no"?>
<svg width="22px" height="100px" viewBox="0 0 22 100" version="1.1" xmlns="http://www.w3.org/2000/svg" xmlns:xlink="http://www.w3.org/1999/xlink" xmlns:sketch="http://www.bohemiancoding.com/sketch/ns">
    <title>m-3</title>
    <description>Created with Sketch (http://www.bohemiancoding.com/sketch)</description>
    <defs></defs>
    <g id="Page-1" stroke="none" stroke-width="1" fill="none" fill-rule="evenodd" sketch:type="MSPage">
        <g id="m-3" sketch:type="MSArtboardGroup" fill="#58595B">
            <path d="M22,93 C21.8612882,92.7777012 18.8583402,92.3003874 18,92 C17.8141117,91.7362893 17.6843743,76.9674559 18,69 C17.6653883,68.564873 17.7033602,68.5865691 18,69 C18.6969595,68.564873 19.4690557,67.8489023 20,67 L21,54 C20.5037912,54.3229445 19.1494585,42.9201033 19,43 C18.0451077,42.4024968 16.4407931,41.7361171 14,41 C13.8618651,41.4199742 13.8713581,41.3982781 14,41 C13.7859212,40.3847611 14.7478772,39.1325872 15,39 C15.2446768,38.3949204 15.6402179,37.5301765 16,37 C15.9914584,36.5941455 16.0104444,36.6096427 16,37 C16.7762119,36.6096427 17.412242,35.5899268 18,35 C17.7286749,33.8914335 17.6907029,33.1599656 17,33 C17.4248993,32.5121825 17.5989374,32.1309514 18,32 C19.0925006,29.2980628 16.3996568,28.4612139 18,25 C16.6528031,25.4485579 15.5959173,25.8793801 15,27 C15.0073521,25.7739991 14.8111638,24.0228153 15,24 C14.8111638,24.0228153 13.0992619,24.7976754 12,26 C12.4315885,24.7046922 11.0044763,23 11,23 C11.0044763,23 9.5647067,24.7046922 10,26 C8.90336199,24.7976754 7.19146014,24.0228153 7,24 C7.19146014,24.0228153 6.99210743,25.7739991 7,27 C6.40670661,25.8793801 5.34982081,25.4485579 4,25 C5.60296711,28.4612139 2.90695902,29.2980628 4,32 C4.39735786,32.1278519 4.57456027,32.5121825 5,33 C4.30559233,33.1568661 4.27394904,33.8883341 4,35 C4.58088893,35.5899268 5.22641199,36.6096427 6,37 C5.98585089,36.6096427 6.01116552,36.5941455 6,37 C6.3497487,37.5301765 6.7579471,38.3949204 7,39 C7.25158239,39.1325872 8.40972671,40.4064572 8,41 C5.68207533,41.7051227 3.97650214,42.3869996 3,43 C2.85316543,42.9201033 1.66337782,54.3632372 2,54 L3,67 C2.90063036,67.783814 3.55564641,68.4006027 4,69 C4.31192098,76.9209643 4.18851216,91.7362893 4,92 C3.14111935,92.3003874 0.138171368,92.7777012 -7.10542736e-15,93 C-0.0706743293,93.2178218 -0.0390310419,93.9306931 -7.10542736e-15,94 C0.2077866,94.3615153 0.571684406,94.9690056 2,95 L9,95 C9.81152434,95 9.00145618,93.1775291 9,92 C8.77362451,91.7362893 10.9190394,73.111752 11,73 C11.0772558,73.111752 13.2289994,91.7362893 13,92 C13.0011677,93.1775291 12.1847709,95 13,95 L20,95 C21.4309395,94.9690056 21.7948373,94.3615153 22,94 C22.0353263,93.9306931 22.0732982,93.2178218 22,93" id="Fill-12" sketch:type="MSShapeGroup"></path>
        </g>
    </g>
</svg>