<?xml version="1.0" encoding="UTF-8" standalone="no"?>
<svg width="25px" height="100px" viewBox="0 0 25 100" version="1.1" xmlns="http://www.w3.org/2000/svg" xmlns:xlink="http://www.w3.org/1999/xlink" xmlns:sketch="http://www.bohemiancoding.com/sketch/ns">
    <title>m-4</title>
    <description>Created with Sketch (http://www.bohemiancoding.com/sketch)</description>
    <defs></defs>
    <g id="Page-1" stroke="none" stroke-width="1" fill="none" fill-rule="evenodd" sketch:type="MSPage">
        <g id="m-4" sketch:type="MSArtboardGroup" fill="#58595B">
            <path d="M20,63 C21.2556975,63.0351286 23.089448,62.3267459 23,61 L24,51 L23,38 C23.203267,37.5615611 22.7448294,36.2074844 22,36 C19.1152681,35.0226673 15.719668,33.0793165 16,32 C15.947306,31.0607393 16.0832565,30.3272811 16,30 C16.5986036,29.4778487 17.0222632,28.4936356 17,27 C17.3795284,27.4373304 17.4016599,27.4467337 17,27 C18.2015545,27.4467337 18.8591753,26.2775888 19,25 C19.2101172,24.2025916 19.1816625,23.2152441 18,23 C18.3596364,23.2152441 18.3058886,23.2277818 18,23 C19.0678435,20.5509728 19.580029,17.717442 20,18 C19.387169,16.7677077 18.7010934,16.4479951 19,16 C19.3365828,16.031115 18.4323541,14 18,14 C15.7006982,16.4103819 12.1881175,14.7898781 12,15 C9.32999605,14.372998 8.5111316,16.6580024 9,17 C5.09023844,16.6580024 5.09023844,17.6422155 6,21 C5.70991964,21.6636979 5.8616783,23.2277818 6,23 L6,23 C5.20405744,23.2591262 5.16927941,24.2182638 5,25 C5.51705968,26.2775888 6.17784218,27.4467337 7,27 C7.35397181,28.4936356 7.77763141,29.4778487 8,30 C8.28981689,30.3272811 8.42892899,31.0607393 8,32 C8.65656699,33.0793165 5.26412857,35.0226673 3,36 C1.63456725,36.2074844 1.17296799,37.5615611 1,38 L0,51 L1,62 C1.10657357,62.5524254 3.03517323,63.2858836 4,63 C3.68963246,74.4726884 4.50217363,92.5928672 5,93 C3.56632855,93.1445281 0.708207087,93.8090287 1,94 C0.515347122,94.241581 0.543801871,94.9468292 1,95 C0.774601502,95.3668438 1.09708866,95.9749245 2,96 L10,96 C10.9297853,96 10.2026084,94.2008333 10,93 L12,70 L14,93 C14.1767883,94.2008333 13.4432881,96 15,96 L22,96 C23.2791464,95.9749245 23.6047952,95.3668438 24,95 C23.8324331,94.9468292 23.8545646,94.241581 24,94 C23.6680279,93.8058943 20.8067448,93.1445281 20,93 C19.8740614,92.5928672 20.6929258,74.3159665 20,63 Z M6,23 L6,23 C6.051,23.003 6.051,23.003 6,23 C6.033,23.003 6.018,23.003 6,23 L6,23 Z" id="Fill-14" sketch:type="MSShapeGroup"></path>
        </g>
    </g>
</svg>