<?xml version="1.0" encoding="UTF-8" standalone="no"?>
<svg width="31px" height="100px" viewBox="0 0 31 100" version="1.1" xmlns="http://www.w3.org/2000/svg" xmlns:xlink="http://www.w3.org/1999/xlink" xmlns:sketch="http://www.bohemiancoding.com/sketch/ns">
    <title>m-5</title>
    <description>Created with Sketch (http://www.bohemiancoding.com/sketch)</description>
    <defs></defs>
    <g id="Page-1" stroke="none" stroke-width="1" fill="none" fill-rule="evenodd" sketch:type="MSPage">
        <g id="m-5" sketch:type="MSArtboardGroup" fill="#58595B">
            <path d="M26,91 C26.1328502,91.2445712 27.1000403,74.8438852 27,63 C27.7614734,62.4206391 28.582025,61.6389096 29,61 L31,45 L30,30 C30.0608897,29.3847482 29.5180153,27.8932082 28,27 C25.2374195,26.5861564 19.8897947,25.6887309 20,24 C20.1581119,23.468619 20.3203502,22.6587472 20,23 C20.925624,21.7237986 21.4248188,20.638758 22,19 C21.8491345,19.4724175 21.8709742,19.4849252 22,19 C22.8132045,19.4849252 23.5931965,18.1966349 24,17 C24.0081522,15.9139846 23.9675926,14.825817 23,15 C23.0004026,14.825817 22.9380032,14.8383247 23,15 C22.8787238,14.8445785 22.8787238,14.8414516 23,15 L23,15 C23.8365539,11.8927678 23.927033,9.857144 24,10 C24.413748,9.56321368 23.927033,9.31306023 24,9 C23.3716787,9.1879835 23.1595209,8.77210338 23,9 C22.9941626,7.72458577 22.0300926,7.02102918 22,7 C22.572967,6.56449912 22.0300926,6.5613722 22,7 C20.9537037,6.60202214 19.8710749,5.85156177 20,6 C19.4529992,5.39503171 18.2455717,5.35125485 18,5 C16.953905,5.35125485 15.4157609,5.05732454 15,5 C12.0493156,4.60079448 11.1289251,7.02102918 11,7 C10.2116546,6.77087572 9.54710145,7.35873634 10,7 C7.05112721,8.52507684 7.96527778,12.2805056 8,12 C8.13063607,13.3217694 8.25855475,14.8383247 8,15 L8,15 C7.48168277,14.8727208 7.44112319,15.9327461 8,17 C7.846719,18.1966349 8.62983092,19.4849252 10,19 C9.56894122,19.4849252 9.59390097,19.4724175 10,19 C10.0213366,20.638758 10.5205314,21.7237986 11,23 C11.1258052,22.6587472 11.2880435,23.468619 11,24 C11.5563607,25.6887309 6.20873591,26.5861564 3,27 C1.9281401,27.8932082 1.38214573,29.3847482 1,30 L0,45 L2,61 C2.64573269,61.889063 3.57860306,62.6989349 5,63 C4.35235507,75.0189926 5.31330515,91.2476981 5,91 C4.20571659,91.8574472 2.18085749,92.5828922 2,93 C1.95621981,93.0644376 1.98429952,93.8399133 2,94 C2.25261675,94.2995703 2.63949275,94.9718577 4,95 L13,95 C14.236413,95 13.3784219,93.0175339 13,91 L16,69 L18,91 C18.0677335,93.0175339 17.2066224,95 19,95 L28,95 C28.8035427,94.9718577 29.1904187,94.2995703 29,94 C29.4556159,93.8399133 29.4868156,93.0644376 29,93 C29.2652979,92.5828922 27.2341989,91.8574472 26,91 L26,91 Z M9,15 L9,15 C9.06,15.003 9.06,15.003 9,15 C9.039,15.003 9.021,15.003 9,15 L9,15 Z" id="Fill-13" sketch:type="MSShapeGroup"></path>
        </g>
    </g>
</svg>