<?xml version="1.0" encoding="UTF-8" standalone="no"?>
<svg width="33px" height="100px" viewBox="0 0 33 100" version="1.1" xmlns="http://www.w3.org/2000/svg" xmlns:xlink="http://www.w3.org/1999/xlink" xmlns:sketch="http://www.bohemiancoding.com/sketch/ns">
    <title>m-6</title>
    <description>Created with Sketch (http://www.bohemiancoding.com/sketch)</description>
    <defs></defs>
    <g id="Page-1" stroke="none" stroke-width="1" fill="none" fill-rule="evenodd" sketch:type="MSPage">
        <g id="m-6" sketch:type="MSArtboardGroup" fill="#58595B">
            <path d="M30,35 C29.7479062,33.4631702 28.9310441,32.5020448 28,32 C26.2439978,30.496083 23.1085985,29.5163552 22,29 C22.3193747,27.4111805 22.8137912,25.867179 23,24 C22.8137912,24.0131371 22.7830821,23.8612173 23,24 C23.4310441,23.3620521 23.9592406,22.4133283 24,22 C24.1680625,21.2351746 24.2018425,20.9375358 24,21 C26.4006142,19.4803456 26.9226689,17.9115409 26,17 C24.7699609,16.4047443 23.7504188,16.2931297 23,16 C22.1320491,14.1352481 21.8096036,11.8595512 21,11 C19.9793412,10.3403529 17.5748185,11.9742662 17,12 C15.4374651,11.9742662 13.0329425,10.3403529 12,11 C11.205751,11.8595512 10.8802345,14.1352481 10,16 C9.26186488,16.2931297 8.24232272,16.4047443 7,17 C6.08961474,17.9115409 6.61166946,19.4803456 9,21 C8.81044109,20.9375358 8.84422111,21.2351746 9,22 C9.05304299,22.4133283 9.58123953,23.3620521 10,24 C10.2292016,23.8612173 10.1984925,24.0131371 10,24 C10.1984925,25.867179 10.6959799,27.4111805 12,29 C9.906756,29.5163552 6.76828587,30.496083 5,32 C4.08123953,32.5020448 3.26744835,33.4631702 3,35 L0,48 L3,64 C3.17225014,64.6873446 4.06895589,65.4686465 5,66 C4.63400335,77.3090916 6.63009492,91.3725267 7,91 C5.57370184,91.9616035 4.47738693,92.6715962 4,93 C4.26242323,93.1273556 4.29620324,93.8776535 5,94 C4.55108878,94.3241118 4.91959799,94.9720964 6,95 L14,95 C15.1887214,95 14.3657175,93.08395 14,92 L17,77 L19,92 C18.6465662,93.08395 17.8235623,95 19,95 L27,95 C28.0926857,94.9720964 28.4642658,94.3241118 28,94 C28.7191513,93.8776535 28.7498604,93.1273556 29,93 C28.5348967,92.6715962 27.4385818,91.9616035 26,91 C26.3821887,91.3725267 28.3782803,77.3090916 28,66 C28.9249023,65.4531445 29.8001117,64.674943 30,64 L33,48 L30,35" id="Fill-11" sketch:type="MSShapeGroup"></path>
        </g>
    </g>
</svg>